<svg width="41" height="35" viewBox="0 0 41 35" fill="none" xmlns="http://www.w3.org/2000/svg">
<path d="M0 31.5404C0 33.0557 1.21133 34.2831 2.70378 34.2831H2.74265C1.22733 34.2831 0 33.0557 0 31.5404Z" fill="#FBBC05"/>
<path d="M23.2348 10.2849V17.4455L32.6809 9.65869V2.74265C32.6809 1.22733 31.4696 0 29.9771 0H9.51241L9.49412 10.2849H23.2348Z" fill="#FBBC05"/>
<path d="M23.2348 24.6084H9.47128L9.45528 34.2831H29.9771C31.4719 34.2831 32.6809 33.0557 32.6809 31.5404V25.2963L23.2348 17.4478V24.6084Z" fill="#34A853"/>
<path d="M9.51241 0L0 10.2849H9.49641L9.51241 0Z" fill="#EA4335"/>
<path d="M0 24.6084V31.5404C0 33.0557 1.22733 34.2831 2.74265 34.2831H9.45527L9.47127 24.6084H0Z" fill="#1967D2"/>
<path d="M9.49641 10.2849H0V24.6084H9.47127L9.49641 10.2849Z" fill="#4285F4"/>
<path d="M40.9866 29.1018V5.56071C40.454 2.43638 37.1011 6.01782 37.1011 6.01782L32.6832 9.65868V25.2941L39.0073 30.5485C41.2905 30.8548 40.9866 29.1018 40.9866 29.1018Z" fill="#34A853"/>
<path d="M23.2348 17.4455L32.6832 25.2963V9.66097L23.2348 17.4455Z" fill="#188038"/>
</svg>
