<svg width="18" height="16" viewBox="0 0 18 16" fill="none" xmlns="http://www.w3.org/2000/svg">
<path d="M0.408436 0H17.5906C17.8168 0 18 0.183252 18 0.409424C18 0.533936 17.9445 0.64541 17.8568 0.720557L10.9984 7.54468V13.401C10.9984 13.5631 10.9042 13.7032 10.7675 13.7695L7.53226 15.6375C7.337 15.7504 7.08709 15.6838 6.97386 15.4887C6.93651 15.4241 6.91878 15.3536 6.91893 15.2839H6.91805V7.54336L0.118837 0.697412C-0.0402449 0.537451 -0.0395125 0.278906 0.120448 0.119971C0.200136 0.0407227 0.304286 0.00117188 0.408436 0.00117188V0ZM16.6001 0.818994H1.39061L7.5954 7.06641C7.68211 7.14141 7.7369 7.25244 7.7369 7.37607V14.5756L10.1794 13.1657V7.37607H10.1805C10.1805 7.27119 10.2207 7.16631 10.301 7.08647L16.6001 0.818994Z" fill="#333333"/>
</svg>
