<svg width="22" height="22" viewBox="0 0 22 22" fill="none" xmlns="http://www.w3.org/2000/svg">
<path d="M8.10525 15.0526L8.10525 11.5789" stroke="#C3C3C3" stroke-width="2.22222" stroke-linecap="round"/>
<path d="M12.7368 15.0526L12.7368 11.5789" stroke="#C3C3C3" stroke-width="2.22222" stroke-linecap="round"/>
<path d="M0 5.78947H20.8421V5.78947C19.7631 5.78947 19.2236 5.78947 18.798 5.96575C18.2306 6.20079 17.7797 6.65162 17.5447 7.21905C17.3684 7.64462 17.3684 8.18414 17.3684 9.26316V16.2105C17.3684 18.3939 17.3684 19.4855 16.6901 20.1638C16.0119 20.8421 14.9202 20.8421 12.7368 20.8421H8.10526C5.92191 20.8421 4.83024 20.8421 4.15196 20.1638C3.47368 19.4855 3.47368 18.3939 3.47368 16.2105V9.26316C3.47368 8.18413 3.47368 7.64462 3.2974 7.21905C3.06237 6.65162 2.61154 6.20079 2.04411 5.96575C1.61853 5.78947 1.07902 5.78947 0 5.78947V5.78947Z" stroke="#C3C3C3" stroke-width="2.22222" stroke-linecap="round"/>
<path d="M8.18418 1.587C8.31612 1.4639 8.60686 1.35512 9.01129 1.27754C9.41573 1.19995 9.91127 1.1579 10.4211 1.1579C10.9308 1.1579 11.4264 1.19995 11.8308 1.27754C12.2353 1.35512 12.526 1.4639 12.6579 1.587" stroke="#C3C3C3" stroke-width="2.22222" stroke-linecap="round"/>
</svg>
