<svg width="41" height="42" viewBox="0 0 41 42" fill="none" xmlns="http://www.w3.org/2000/svg">
<path d="M37.9087 0H31.2437V9.71026H40.9963V2.73804C40.9989 2.73804 40.5144 0.264801 37.9087 0Z" fill="#1967D2"/>
<path d="M31.2465 41.1766V41.2004V41.2216L40.9991 31.5113H40.9117L31.2465 41.1766Z" fill="#1967D2"/>
<path d="M41 31.5123V31.424L40.9116 31.5123H41Z" fill="#FBBC05"/>
<path d="M40.9991 9.71024H31.2465V31.4239H40.9991V9.71024Z" fill="#FBBC05"/>
<path d="M40.9117 31.5113H31.2465V41.1766L40.9117 31.5113Z" fill="#EA4335"/>
<path d="M31.2465 31.5113H40.9117L40.9991 31.424H31.2465V31.5113Z" fill="#EA4335"/>
<path d="M31.2226 41.2015H31.2475V41.1766L31.2226 41.2015Z" fill="#34A853"/>
<path d="M9.53265 31.424V41.2004H31.2225L31.2463 31.424H9.53265Z" fill="#34A853"/>
<path d="M31.2464 31.5113V31.424L31.2226 41.2004L31.2464 41.1766V31.5113Z" fill="#34A853"/>
<path d="M0 31.424V38.2214C0.0873842 40.4272 2.46 41.2004 2.46 41.2004H9.53282V31.424H0Z" fill="#188038"/>
<path d="M9.53288 9.71028H31.2465V2.28877e-05H2.73545C2.73545 2.28877e-05 0.174829 0.264824 6.10338e-05 3.00022V31.424H9.53288V9.71028Z" fill="#4285F4"/>
<path d="M16.6366 27.0288C16.1398 27.0288 15.6608 26.9637 15.1995 26.8336C14.75 26.7035 14.3361 26.5084 13.9576 26.2481C13.5791 25.9761 13.242 25.639 12.9463 25.2369C12.6624 24.8347 12.4436 24.3675 12.2899 23.8353L14.4721 22.9659C14.6258 23.5573 14.8861 24.0068 15.2527 24.3143C15.6194 24.61 16.0807 24.7578 16.6366 24.7578C16.8849 24.7578 17.1215 24.7224 17.3462 24.6514C17.571 24.5686 17.7661 24.4562 17.9317 24.3143C18.0973 24.1724 18.2274 24.0068 18.322 23.8175C18.4285 23.6165 18.4817 23.3917 18.4817 23.1434C18.4817 22.6229 18.2865 22.2149 17.8962 21.9192C17.5177 21.6235 16.9914 21.4756 16.3172 21.4756H15.2705V19.3644H16.2285C16.4651 19.3644 16.6957 19.3348 16.9204 19.2757C17.1452 19.2165 17.3403 19.1278 17.5059 19.0095C17.6833 18.8794 17.8193 18.7198 17.914 18.5305C18.0204 18.3294 18.0736 18.0988 18.0736 17.8386C18.0736 17.4364 17.9317 17.1112 17.6478 16.8628C17.364 16.6026 16.9796 16.4725 16.4946 16.4725C15.9742 16.4725 15.5721 16.6144 15.2882 16.8983C15.0162 17.1703 14.8269 17.4778 14.7205 17.8208L12.5915 16.9515C12.6979 16.6558 12.8576 16.3542 13.0705 16.0467C13.2834 15.7273 13.5495 15.4435 13.8689 15.1951C14.2 14.9349 14.5844 14.7279 15.0221 14.5741C15.4597 14.4085 15.9624 14.3257 16.5301 14.3257C17.1097 14.3257 17.636 14.4085 18.1091 14.5741C18.5941 14.7397 19.008 14.9703 19.351 15.266C19.694 15.5499 19.9602 15.8929 20.1494 16.2951C20.3386 16.6854 20.4333 17.1112 20.4333 17.5725C20.4333 17.9273 20.386 18.2466 20.2913 18.5305C20.2085 18.8144 20.0962 19.0687 19.9542 19.2934C19.8123 19.5181 19.6467 19.7133 19.4575 19.8789C19.2801 20.0326 19.0967 20.1568 18.9075 20.2515V20.3934C19.4752 20.6181 19.9424 20.9789 20.3091 21.4756C20.6876 21.9724 20.8768 22.5993 20.8768 23.3563C20.8768 23.8885 20.7763 24.3794 20.5752 24.8288C20.3741 25.2664 20.0844 25.6508 19.7059 25.982C19.3392 26.3132 18.8957 26.5675 18.3752 26.7449C17.8548 26.9342 17.2753 27.0288 16.6366 27.0288Z" fill="#4285F4"/>
<path d="M25.1136 26.7449V17.3418L22.9669 18.2466L22.1153 16.2773L25.6813 14.6096H27.4378V26.7449H25.1136Z" fill="#4285F4"/>
</svg>
