<svg width="20" height="23" viewBox="0 0 20 23" fill="none" xmlns="http://www.w3.org/2000/svg">
<path fill-rule="evenodd" clip-rule="evenodd" d="M0.392088 7.39289C0 8.24537 0 9.2152 0 11.1549V17.2126C0 19.9063 0 21.2532 0.836838 22.0901C1.59619 22.8494 2.7755 22.9197 5 22.9262V15.7841C5 14.2061 6.27918 12.9269 7.85714 12.9269H12.1429C13.7208 12.9269 15 14.2061 15 15.7841L12.1429 15.7841H7.85714L7.85715 22.9269H12.1429V15.7841H15V22.9262C17.2245 22.9197 18.4038 22.8494 19.1632 22.0901C20 21.2532 20 19.9063 20 17.2126V11.1549C20 9.21521 20 8.24537 19.6079 7.39289C19.2158 6.5404 18.4795 5.90924 17.0068 4.64693L15.5782 3.42243C12.9163 1.14081 11.5854 0 10 0C8.41461 0 7.08367 1.14081 4.42179 3.42243L4.42179 3.42243L2.99322 4.64693C1.52052 5.90924 0.784175 6.5404 0.392088 7.39289Z" fill="white"/>
</svg>
