<svg width="23" height="23" viewBox="0 0 23 23" fill="none" xmlns="http://www.w3.org/2000/svg">
<path d="M1.27778 12.7778C1.27778 10.3684 1.27778 9.16368 2.02628 8.41517C2.77479 7.66667 3.97949 7.66667 6.38889 7.66667H6.82735C7.87194 7.66667 8.39423 7.66667 8.86387 7.8612C9.3335 8.05573 9.70282 8.42504 10.4415 9.16368L11.2808 10.003C12.0194 10.7416 12.3887 11.1109 12.8584 11.3055C13.328 11.5 13.8503 11.5 14.8949 11.5H16.6111C19.0205 11.5 20.2252 11.5 20.9737 12.2485C21.7222 12.997 21.7222 14.2017 21.7222 16.6111V16.6111C21.7222 19.0205 21.7222 20.2252 20.9737 20.9737C20.2252 21.7222 19.0205 21.7222 16.6111 21.7222H6.38889C3.97949 21.7222 2.77479 21.7222 2.02628 20.9737C1.27778 20.2252 1.27778 19.0205 1.27778 16.6111V12.7778Z" stroke="#C3C3C3" stroke-width="2.5"/>
<path d="M19.1667 11.5V6.38889C19.1667 3.97949 19.1667 2.77479 18.4182 2.02628C17.6697 1.27778 16.465 1.27778 14.0556 1.27778H8.94444C6.53504 1.27778 5.33034 1.27778 4.58184 2.02628C3.83333 2.77479 3.83333 3.97949 3.83333 6.38889V7.66667" stroke="#C3C3C3" stroke-width="2.5"/>
</svg>
